<svg xmlns="http://www.w3.org/2000/svg" width="115.077" height="24.98" viewBox="0 0 115.077 24.98">
  <defs>
    <style>
      .cls-1 {
        fill: #0081c9;
        fill-rule: evenodd;
      }
    </style>
  </defs>
  <g id="Coinbase_logo" transform="translate(-1064 -4907.277)">
    <g id="Imported-Layers" transform="translate(1064 4907.277)">
      <path id="Fill-1" class="cls-1" d="M7.806,54.988c-3.766,0-7.437-2.7-7.437-8.818s3.672-8.787,7.437-8.787a7.72,7.72,0,0,1,4.331,1.161l-1.13,2.479a4.868,4.868,0,0,0-2.761-.816c-2.26,0-4.331,1.789-4.331,5.931S6.049,52.1,8.246,52.1a4.869,4.869,0,0,0,2.761-.816l1.13,2.542a7.547,7.547,0,0,1-4.331,1.161" transform="translate(-0.369 -30.007)"/>
      <path id="Fill-2" class="cls-1" d="M72.952,54.988c-4.8,0-7.437-3.8-7.437-8.818s2.636-8.787,7.437-8.787,7.438,3.766,7.438,8.787-2.636,8.818-7.438,8.818Zm0-14.875c-2.667,0-3.985,2.385-3.985,6.025s1.318,6.057,3.985,6.057,3.986-2.416,3.986-6.057-1.318-6.025-3.986-6.025Z" transform="translate(-52.554 -30.007)"/>
      <path id="Fill-3" class="cls-1" d="M155.255,7.991a2,2,0,0,1-2.04-1.946,2.042,2.042,0,0,1,4.08,0,2,2,0,0,1-2.04,1.946Zm-1.726,3.076h3.452V27.982h-3.452Z" transform="translate(-122.806 -3.347)"/>
      <path id="Fill-4" class="cls-1" d="M199.884,54.642v-11.3c0-1.977-1.193-3.2-3.546-3.2a8.884,8.884,0,0,0-3.107.5v14H189.81V38.575a17.147,17.147,0,0,1,6.5-1.193c4.739,0,7.03,2.071,7.03,5.649V54.642h-3.452" transform="translate(-152.12 -30.007)"/>
      <path id="Fill-5" class="cls-1" d="M280.666,25.294a13.642,13.642,0,0,1-5.68-1.193V.314h3.421V8.473a8.652,8.652,0,0,1,3.3-.69c4.362,0,7.312,3.138,7.312,8.316,0,6.37-3.3,9.2-8.348,9.2Zm.439-14.844a6.456,6.456,0,0,0-2.7.565V22.125a6.833,6.833,0,0,0,2.448.439c2.73,0,4.739-1.883,4.739-6.214,0-3.7-1.758-5.9-4.488-5.9Z" transform="translate(-220.35 -0.314)"/>
      <path id="Fill-6" class="cls-1" d="M362.9,54.988c-4.864,0-7.312-1.977-7.312-5.3,0-4.707,5.021-5.555,10.136-5.837V42.78c0-2.134-1.412-2.887-3.578-2.887a12.358,12.358,0,0,0-4.676,1.036l-.879-2.354a15.791,15.791,0,0,1,5.9-1.193c4.048,0,6.5,1.569,6.5,5.743V53.8a14.7,14.7,0,0,1-6.088,1.193Zm2.824-8.85c-3.452.188-6.9.471-6.9,3.483,0,1.789,1.381,2.887,3.986,2.887a8.646,8.646,0,0,0,2.918-.439V46.138Z" transform="translate(-284.917 -30.007)"/>
      <path id="Fill-7" class="cls-1" d="M440.516,54.988a12.113,12.113,0,0,1-5.272-1.193l1.161-2.636a9.389,9.389,0,0,0,4.017,1.1c1.851,0,3.075-.91,3.075-2.322,0-1.538-1.287-2.134-3.013-2.762-2.26-.847-4.8-1.883-4.8-5.052,0-2.793,2.165-4.739,5.931-4.739a9.914,9.914,0,0,1,4.927,1.193l-1.067,2.385a7.594,7.594,0,0,0-3.483-1c-1.789,0-2.793.941-2.793,2.165,0,1.538,1.255,2.071,2.919,2.7,2.354.879,4.958,1.851,4.958,5.147,0,3.044-2.322,5.021-6.559,5.021" transform="translate(-348.724 -30.007)"/>
      <path id="Fill-8" class="cls-1" d="M519.87,46.106l-11.235,1.569a4.78,4.78,0,0,0,5.178,4.582,10.6,10.6,0,0,0,4.676-1.036l1,2.573a13.806,13.806,0,0,1-5.9,1.193c-5.335,0-8.316-3.421-8.316-8.818,0-5.178,2.887-8.787,7.626-8.787,4.393,0,7,2.887,7,7.438,0,.408,0,.847-.031,1.287Zm-7.03-6.214c-2.636,0-4.362,2.009-4.425,5.523l8.191-1.13c-.031-2.95-1.506-4.393-3.766-4.393Z" transform="translate(-404.824 -30.007)"/>
    </g>
  </g>
</svg>
