<svg xmlns="http://www.w3.org/2000/svg" width="100.754" height="33.035" viewBox="0 0 100.754 33.035">
  <defs>
    <style>
      .cls-1 {
        fill: #3d6db4;
      }

      .cls-2 {
        fill: #cc0f1e;
      }

      .cls-3 {
        fill: #fab600;
      }

      .cls-4 {
        fill: #4b9f30;
      }
    </style>
  </defs>
  <g id="google_logo" transform="translate(-726 -4907.482)">
    <path id="path2998" class="cls-1" d="M194.066,390.53H182.309v3.489h8.338c-.412,4.892-4.482,6.978-8.324,6.978a9.318,9.318,0,0,1,.011-18.635,9.048,9.048,0,0,1,6.286,2.521l2.443-2.529a12.419,12.419,0,0,0-8.853-3.491,12.817,12.817,0,1,0,.186,25.63c6.861,0,11.884-4.7,11.884-11.651a10.448,10.448,0,0,0-.213-2.314Z" transform="translate(556.705 4528.619)"/>
    <path id="path3000" class="cls-2" d="M244.123,402.149a8.238,8.238,0,1,0,8.266,8.266,8.14,8.14,0,0,0-8.266-8.266Zm.048,3.236a5.012,5.012,0,1,1-4.714,4.984,4.736,4.736,0,0,1,4.714-4.984Z" transform="translate(516.279 4514.473)"/>
    <path id="path3005" class="cls-3" d="M290.008,402.149a8.238,8.238,0,1,0,8.266,8.266,8.14,8.14,0,0,0-8.266-8.266Zm.048,3.236a5.012,5.012,0,1,1-4.714,4.984,4.736,4.736,0,0,1,4.714-4.984Z" transform="translate(488.404 4514.473)"/>
    <path id="path3007" class="cls-1" d="M335.592,402.171a8.248,8.248,0,0,0-.076,16.478,5.441,5.441,0,0,0,4.518-2v1.625c0,2.842-1.725,4.544-4.33,4.544a4.568,4.568,0,0,1-4.217-2.932l-3.166,1.324a7.926,7.926,0,0,0,7.409,4.851c4.4,0,7.758-2.773,7.758-8.589v-14.8h-3.454v1.4a5.828,5.828,0,0,0-4.442-1.89Zm.321,3.229c2.171,0,4.4,1.854,4.4,5.019,0,3.218-2.224,4.991-4.448,4.991a4.681,4.681,0,0,1-4.557-4.961,4.748,4.748,0,0,1,4.605-5.05Z" transform="translate(460.486 4514.46)"/>
    <path id="path3011" class="cls-2" d="M395.179,402.121c-4.177,0-7.684,3.323-7.684,8.227a7.966,7.966,0,0,0,8.085,8.266,8.357,8.357,0,0,0,6.9-3.615l-2.848-1.895a4.609,4.609,0,0,1-4.036,2.268,4.238,4.238,0,0,1-4.04-2.5l11.046-4.583-.573-1.343a7.458,7.458,0,0,0-6.85-4.827Zm.144,3.168a3.284,3.284,0,0,1,3.048,1.76l-7.376,3.083a4.576,4.576,0,0,1,4.328-4.843Z" transform="translate(424.151 4514.49)"/>
    <path id="path3015" class="cls-4" d="M374.079,405.315h3.628V381.034h-3.628Z" transform="translate(432.301 4527.3)"/>
  </g>
</svg>
