<svg xmlns="http://www.w3.org/2000/svg" xmlns:xlink="http://www.w3.org/1999/xlink" width="18.201" height="20" viewBox="0 0 18.201 20">
  <defs>
    <style>
      .cls-1 {
        fill: url(#linear-gradient);
      }

      .cls-2 {
        fill: url(#linear-gradient-2);
      }

      .cls-3 {
        fill: url(#linear-gradient-3);
      }

      .cls-4 {
        fill: url(#linear-gradient-4);
      }

      .cls-5 {
        fill: url(#linear-gradient-5);
      }

      .cls-6 {
        fill: url(#linear-gradient-6);
      }

      .cls-7 {
        fill: url(#linear-gradient-7);
      }

      .cls-8 {
        fill: url(#linear-gradient-8);
      }

      .cls-9 {
        fill: url(#linear-gradient-9);
      }

      .cls-10 {
        fill: url(#linear-gradient-10);
      }

      .cls-11 {
        fill: url(#linear-gradient-11);
      }

      .cls-12 {
        fill: #61db99;
      }

      .cls-13 {
        fill: url(#linear-gradient-12);
      }

      .cls-14 {
        fill: url(#linear-gradient-13);
      }

      .cls-15 {
        fill: url(#linear-gradient-14);
      }

      .cls-16 {
        fill: url(#linear-gradient-15);
      }

      .cls-17 {
        fill: url(#linear-gradient-16);
      }

      .cls-18 {
        fill: url(#linear-gradient-17);
      }

      .cls-19 {
        fill: url(#linear-gradient-18);
      }
    </style>
    <linearGradient id="linear-gradient" x1="0.512" y1="0.143" x2="0.507" y2="0.341" gradientUnits="objectBoundingBox">
      <stop offset="0" stop-color="#ffb92d"/>
      <stop offset="1" stop-color="#f59500"/>
    </linearGradient>
    <linearGradient id="linear-gradient-2" x1="0.542" y1="0.264" x2="0.526" y2="0.423" xlink:href="#linear-gradient"/>
    <linearGradient id="linear-gradient-3" x1="0.496" y1="1.038" x2="0.496" y2="1.305" gradientUnits="objectBoundingBox">
      <stop offset="0" stop-color="#a7f3ce"/>
      <stop offset="1" stop-color="#61db99"/>
    </linearGradient>
    <linearGradient id="linear-gradient-4" x1="0.496" y1="0.71" x2="0.496" y2="1.568" gradientUnits="objectBoundingBox">
      <stop offset="0" stop-color="#ff4c54"/>
      <stop offset="1" stop-color="#be3f45"/>
    </linearGradient>
    <linearGradient id="linear-gradient-5" x1="0.496" y1="0.522" x2="0.496" y2="1.381" xlink:href="#linear-gradient-4"/>
    <linearGradient id="linear-gradient-6" x1="0.586" y1="0.764" x2="0.104" y2="0.764" gradientUnits="objectBoundingBox">
      <stop offset="0" stop-color="#be3f45" stop-opacity="0"/>
      <stop offset="1" stop-color="#be3f45"/>
    </linearGradient>
    <linearGradient id="linear-gradient-7" x1="0.327" y1="0.637" x2="0.746" y2="0.832" xlink:href="#linear-gradient"/>
    <linearGradient id="linear-gradient-8" x1="0.482" y1="1.199" x2="0.465" y2="1.573" xlink:href="#linear-gradient-6"/>
    <linearGradient id="linear-gradient-9" x1="0.467" y1="4.79" x2="0.467" y2="25.623" gradientUnits="objectBoundingBox">
      <stop offset="0" stop-color="#fff465"/>
      <stop offset="1" stop-color="#ffe600"/>
    </linearGradient>
    <linearGradient id="linear-gradient-10" x1="0.495" y1="0.219" x2="0.495" y2="1.229" xlink:href="#linear-gradient-9"/>
    <linearGradient id="linear-gradient-11" x1="0.464" y1="-12.657" x2="0.464" y2="7.862" xlink:href="#linear-gradient-9"/>
    <linearGradient id="linear-gradient-12" x1="0.748" y1="1.007" x2="-0.172" y2="0.379" xlink:href="#linear-gradient-6"/>
    <linearGradient id="linear-gradient-13" x1="0.47" y1="1.261" x2="0.47" y2="1.981" xlink:href="#linear-gradient-4"/>
    <linearGradient id="linear-gradient-14" x1="0.456" y1="2.368" x2="0.456" y2="1.648" xlink:href="#linear-gradient-4"/>
    <linearGradient id="linear-gradient-15" x1="-4.428" y1="-12.827" x2="-3.432" y2="-8.428" xlink:href="#linear-gradient-3"/>
    <linearGradient id="linear-gradient-16" x1="-4.435" y1="-12.827" x2="-3.439" y2="-8.428" xlink:href="#linear-gradient-3"/>
    <linearGradient id="linear-gradient-17" x1="-4.822" y1="-14.575" x2="-3.826" y2="-10.176" xlink:href="#linear-gradient-3"/>
    <linearGradient id="linear-gradient-18" x1="-4.829" y1="-14.575" x2="-3.833" y2="-10.176" xlink:href="#linear-gradient-3"/>
  </defs>
  <g id="icon_cash" transform="translate(-1070 -4990)">
    <path id="Path_19" data-name="Path 19" class="cls-1" d="M39.754,84.5H24.5a1.472,1.472,0,0,1-1.472-1.472v-12.7A1.472,1.472,0,0,1,24.5,68.854H39.754a1.472,1.472,0,0,1,1.472,1.472v12.7A1.472,1.472,0,0,1,39.754,84.5Z" transform="translate(1046.975 4923.835)"/>
    <path id="Path_20" data-name="Path 20" class="cls-2" d="M49.4,92.737H34.822a1.407,1.407,0,0,1-1.407-1.407V79.193a1.407,1.407,0,0,1,1.407-1.407H49.4A1.407,1.407,0,0,1,50.8,79.193V91.33A1.407,1.407,0,0,1,49.4,92.737Z" transform="translate(1036.991 4915.252)"/>
    <path id="Path_21" data-name="Path 21" class="cls-3" d="M59.07,6.8,55.4.443A.885.885,0,0,0,54.191.119L42.621,6.8Z" transform="translate(1028.145 4990)"/>
    <path id="Path_22" data-name="Path 22" class="cls-4" d="M23.025,159.315h18.2v-4.821a1.1,1.1,0,0,0-1.1-1.1h-16a1.1,1.1,0,0,0-1.1,1.1Z" transform="translate(1046.975 4842.599)"/>
    <path id="Path_23" data-name="Path 23" class="cls-5" d="M23.025,236.224v6.764a1.472,1.472,0,0,0,1.472,1.472H39.754a1.472,1.472,0,0,0,1.472-1.472v-6.764a.909.909,0,0,0-.909-.909H23.934A.909.909,0,0,0,23.025,236.224Z" transform="translate(1046.975 4763.877)"/>
    <path id="Path_24" data-name="Path 24" class="cls-6" d="M418.679,169.277V181h1.274a1.472,1.472,0,0,0,1.472-1.472v-7.508Z" transform="translate(666.776 4827.335)"/>
    <path id="Path_25" data-name="Path 25" class="cls-7" d="M37.239,119.672l-12.777-1.484a1.624,1.624,0,0,1-1.437-1.613V103.735a.544.544,0,0,0,.481.54l14.108,1.639a1.624,1.624,0,0,1,1.437,1.613v10.532A1.624,1.624,0,0,1,37.239,119.672Z" transform="translate(1046.975 4890.317)"/>
    <path id="Path_26" data-name="Path 26" class="cls-8" d="M37.239,369.868l-12.777-1.484a1.624,1.624,0,0,1-1.437-1.613v2.565a1.624,1.624,0,0,0,1.437,1.613l12.777,1.484a1.624,1.624,0,0,0,1.812-1.613v-2.565A1.624,1.624,0,0,1,37.239,369.868Z" transform="translate(1046.975 4637.556)"/>
    <path id="Path_27" data-name="Path 27" class="cls-9" d="M30.722,138.913l-.032,0-.585-.064a.294.294,0,1,1,.064-.585l.585.064a.294.294,0,0,1-.032.586Z" transform="translate(1040.423 4857.14)"/>
    <path id="Path_28" data-name="Path 28" class="cls-10" d="M85.13,156.541l-.037,0-1.136-.144a.294.294,0,0,1,.074-.584l1.136.145a.294.294,0,0,1-.037.586Zm1.119-.146a.294.294,0,0,1-.126-.56,1.16,1.16,0,0,0,.616-.64.294.294,0,1,1,.555.194,1.726,1.726,0,0,1-.92.978A.293.293,0,0,1,86.249,156.4Zm-3.391-.143-.037,0-1.136-.145a.294.294,0,1,1,.074-.584l1.136.144a.294.294,0,0,1-.037.586Zm-2.273-.289-.037,0-1.136-.145a.294.294,0,0,1,.074-.584l1.136.145a.294.294,0,0,1-.037.586Zm-2.273-.289-.037,0-1.136-.145a.294.294,0,1,1,.074-.584l1.136.145a.294.294,0,0,1-.037.586Zm-2.273-.289-.037,0-1.136-.145a.294.294,0,1,1,.074-.584l1.136.145a.294.294,0,0,1-.037.586Zm11.043-.937a.294.294,0,0,1-.294-.294v-1.145a.294.294,0,1,1,.588,0v1.145A.294.294,0,0,1,87.083,154.449Zm0-2.291a.294.294,0,0,1-.294-.294v-1.145a.294.294,0,1,1,.588,0v1.145A.294.294,0,0,1,87.083,152.158Zm0-2.291a.294.294,0,0,1-.294-.294v-1.145a.294.294,0,0,1,.588,0v1.145A.294.294,0,0,1,87.083,149.867Zm0-2.291a.294.294,0,0,1-.294-.294v-1.146a.294.294,0,0,1,.588,0v1.146A.294.294,0,0,1,87.083,147.576Zm-.411-2.174a.293.293,0,0,1-.2-.081,1.442,1.442,0,0,0-.852-.371h-.008a.294.294,0,0,1,.063-.585h.005a2.03,2.03,0,0,1,1.2.529.294.294,0,0,1-.2.508Zm-2.169-.576-.032,0-1.139-.125a.294.294,0,1,1,.064-.585l1.139.125a.294.294,0,0,1-.032.586Zm-2.277-.25-.032,0-1.139-.125a.294.294,0,1,1,.064-.585l1.139.125a.294.294,0,0,1-.032.586Zm-2.277-.25-.032,0-1.139-.125a.294.294,0,0,1,.064-.585l1.139.125a.294.294,0,0,1-.032.586Zm-2.277-.25-.032,0-1.139-.125a.294.294,0,0,1,.064-.585l1.139.125a.294.294,0,0,1-.032.586Zm-2.277-.25-.032,0-1.139-.125a.294.294,0,1,1,.064-.585l1.139.125a.294.294,0,0,1-.032.586Z" transform="translate(998.03 4852.479)"/>
    <path id="Path_29" data-name="Path 29" class="cls-11" d="M47.336,433.61l-.037,0-.584-.074a.294.294,0,0,1,.074-.584l.584.074a.294.294,0,0,1-.037.586Z" transform="translate(1024.458 4573.964)"/>
    <path id="Path_30" data-name="Path 30" class="cls-12" d="M280.884,32.712,279,33.736a.505.505,0,0,1-.686-.2h0a.505.505,0,0,1,.2-.686l1.882-1.024a.506.506,0,0,1,.686.2h0A.505.505,0,0,1,280.884,32.712Z" transform="translate(801.716 4959.479)"/>
    <path id="Path_31" data-name="Path 31" class="cls-13" d="M325.724,306.38l-1.868-1.868a1.442,1.442,0,1,0-2.037,2.037l3.9,3.905V306.38Z" transform="translate(760.302 4697.832)"/>
    <circle id="Ellipse_2" data-name="Ellipse 2" class="cls-14" cx="1.442" cy="1.442" r="1.442" transform="translate(1081.653 5001.876)"/>
    <circle id="Ellipse_3" data-name="Ellipse 3" class="cls-15" cx="0.995" cy="0.995" r="0.995" transform="translate(1082.1 5002.323)"/>
    <circle id="Ellipse_4" data-name="Ellipse 4" class="cls-16" cx="0.206" cy="0.206" r="0.206" transform="translate(1082.511 5002.734)"/>
    <circle id="Ellipse_5" data-name="Ellipse 5" class="cls-17" cx="0.206" cy="0.206" r="0.206" transform="translate(1083.267 5002.734)"/>
    <circle id="Ellipse_6" data-name="Ellipse 6" class="cls-18" cx="0.206" cy="0.206" r="0.206" transform="translate(1082.511 5003.491)"/>
    <circle id="Ellipse_7" data-name="Ellipse 7" class="cls-19" cx="0.206" cy="0.206" r="0.206" transform="translate(1083.267 5003.491)"/>
  </g>
</svg>
