<svg xmlns="http://www.w3.org/2000/svg" width="12.65" height="12.65" viewBox="0 0 12.65 12.65">
  <defs>
    <style>
      .cls-1 {
        opacity: 0.5;
      }

      .cls-2 {
        fill: #747f81;
      }
    </style>
  </defs>
  <g id="icon_time" transform="translate(-575 -4993.255)">
    <g id="Group_3383" data-name="Group 3383" class="cls-1" transform="translate(570 4993.255)">
      <g id="Group_3343" data-name="Group 3343" transform="translate(5)">
        <path id="Path_4561" data-name="Path 4561" class="cls-2" d="M6.325,0A6.325,6.325,0,1,0,12.65,6.325,6.332,6.332,0,0,0,6.325,0Zm0,11.3A4.979,4.979,0,1,1,11.3,6.325,4.985,4.985,0,0,1,6.325,11.3Z"/>
        <path id="Path_4562" data-name="Path 4562" class="cls-2" d="M47.95,20.769H45.108V17.351a.521.521,0,0,0-1.042,0v3.939a.521.521,0,0,0,.521.521H47.95a.521.521,0,0,0,0-1.042Z" transform="translate(-38.329 -14.639)"/>
      </g>
    </g>
  </g>
</svg>
