<svg xmlns="http://www.w3.org/2000/svg" width="19.998" height="20" viewBox="0 0 19.998 20">
  <defs>
    <style>
      .cls-1 {
        fill: #f7931a;
      }

      .cls-2 {
        fill: #fff;
      }
    </style>
  </defs>
  <g id="icon_bitcoin" transform="translate(-1126 -4992)">
    <path id="Path_32" data-name="Path 32" class="cls-1" d="M19.7,12.422A10,10,0,1,1,12.414.3,10,10,0,0,1,19.7,12.422Z" transform="translate(1126.002 4991.998)"/>
    <path id="Path_33" data-name="Path 33" class="cls-2" d="M25.111,16.244c.2-1.331-.814-2.046-2.2-2.523l.449-1.8-1.1-.273L21.826,13.4c-.288-.072-.585-.14-.879-.207l.441-1.767-1.1-.273-.45,1.8c-.239-.054-.473-.108-.7-.165v-.006l-1.513-.378-.292,1.172s.814.187.8.2a.584.584,0,0,1,.511.638l-.512,2.053a.909.909,0,0,1,.114.037l-.116-.029-.717,2.877a.4.4,0,0,1-.5.261c.011.016-.8-.2-.8-.2l-.545,1.256L17,21.026c.266.067.526.136.782.2l-.454,1.823,1.1.273.45-1.8c.3.081.59.156.874.227l-.448,1.8,1.1.273L20.848,22c1.871.354,3.278.211,3.87-1.481a1.925,1.925,0,0,0-1.008-2.661,1.75,1.75,0,0,0,1.4-1.611ZM22.6,19.759c-.339,1.362-2.633.626-3.377.441l.6-2.415C20.573,17.971,22.958,18.338,22.6,19.759Zm.339-3.535c-.309,1.239-2.219.61-2.838.455l.546-2.191C21.271,14.643,23.265,14.931,22.943,16.224Z" transform="translate(1115.297 4984.332)"/>
  </g>
</svg>
