<svg xmlns="http://www.w3.org/2000/svg" width="15.037" height="25" viewBox="0 0 15.037 25">
  <defs>
    <style>
      .cls-1 {
        fill: #fff;
      }
    </style>
  </defs>
  <g id="icon_location" transform="translate(-729.962 -4988)">
    <g id="Group_16" data-name="Group 16" transform="translate(729.963 4988)">
      <path id="Path_36" data-name="Path 36" class="cls-1" d="M114.867,2.173a7.6,7.6,0,0,0-10.643,0,7.111,7.111,0,0,0-2.2,5.248q0,1.855,1.88,6.2t3.759,7.909q1.88,3.564,1.88,3.466.293-.537.806-1.465t1.806-3.491q1.294-2.563,2.27-4.711t1.806-4.443a11.336,11.336,0,0,0,.83-3.466A7.111,7.111,0,0,0,114.867,2.173ZM112,9.814a3.484,3.484,0,0,1-4.958,0,3.383,3.383,0,0,1-1.036-2.479,3.263,3.263,0,0,1,1.036-2.442,3.575,3.575,0,0,1,4.958,0,3.262,3.262,0,0,1,1.036,2.442A3.383,3.383,0,0,1,112,9.814Z" transform="translate(-102.027)"/>
    </g>
  </g>
</svg>
