<svg xmlns="http://www.w3.org/2000/svg" width="21.678" height="21.664" viewBox="0 0 21.678 21.664">
  <defs>
    <style>
      .cls-1 {
        fill: #f0f0f0;
      }
    </style>
  </defs>
  <g id="icon_call" transform="translate(-945 -4989)">
    <g id="Group_3282" data-name="Group 3282" transform="translate(945 4989)">
      <path id="Path_4527" data-name="Path 4527" class="cls-1" d="M21.668,17.285a1.048,1.048,0,0,1-.321.918l-3.052,3.029a1.718,1.718,0,0,1-.539.39,2.228,2.228,0,0,1-.654.207q-.023,0-.138.012t-.3.012a10.579,10.579,0,0,1-1.411-.149,10.719,10.719,0,0,1-2.387-.734,20.033,20.033,0,0,1-3.2-1.756A23.868,23.868,0,0,1,5.856,16a25.147,25.147,0,0,1-2.662-3.029A21.583,21.583,0,0,1,1.5,10.3,14.4,14.4,0,0,1,.532,8.071,11.81,11.81,0,0,1,.1,6.35,5.684,5.684,0,0,1,0,5.214Q.027,4.8.027,4.755A2.231,2.231,0,0,1,.233,4.1a1.72,1.72,0,0,1,.39-.539L3.676.509A1.011,1.011,0,0,1,4.41.188.856.856,0,0,1,4.938.36a1.6,1.6,0,0,1,.39.425L7.783,5.443a1.117,1.117,0,0,1,.115.8,1.43,1.43,0,0,1-.39.734L6.384,8.105a.383.383,0,0,0-.08.149.566.566,0,0,0-.034.172,4.144,4.144,0,0,0,.413,1.1,10.112,10.112,0,0,0,.849,1.343A14.906,14.906,0,0,0,9.16,12.7,15.2,15.2,0,0,0,11,14.336a10.6,10.6,0,0,0,1.343.861,3.568,3.568,0,0,0,.826.333l.287.057a.547.547,0,0,0,.149-.034.383.383,0,0,0,.149-.08l1.308-1.331a1.406,1.406,0,0,1,.964-.367,1.2,1.2,0,0,1,.62.138h.023l4.429,2.616A1.154,1.154,0,0,1,21.668,17.285Z" transform="translate(0 -0.188)"/>
    </g>
  </g>
</svg>
