<svg xmlns="http://www.w3.org/2000/svg" width="35" height="35" viewBox="0 0 35 35">
  <defs>
    <style>
      .cls-1 {
        fill: #179bdb;
      }

      .cls-2 {
        fill: #fff;
      }
    </style>
  </defs>
  <g id="icon_TWITTER" transform="translate(-817 -4982)">
    <rect id="Rectangle_4" data-name="Rectangle 4" class="cls-1" width="35" height="35" rx="6" transform="translate(817 4982)"/>
    <path id="Path_4581" data-name="Path 4581" class="cls-2" d="M70.827,70.737a8.545,8.545,0,0,1-2.454.673,4.287,4.287,0,0,0,1.879-2.364,8.551,8.551,0,0,1-2.713,1.037,4.277,4.277,0,0,0-7.281,3.9,12.131,12.131,0,0,1-8.807-4.464,4.277,4.277,0,0,0,1.322,5.7,4.256,4.256,0,0,1-1.935-.534c0,.018,0,.036,0,.054a4.276,4.276,0,0,0,3.428,4.19,4.283,4.283,0,0,1-1.93.073,4.277,4.277,0,0,0,3.992,2.967A8.573,8.573,0,0,1,51.019,83.8,8.668,8.668,0,0,1,50,83.739,12.152,12.152,0,0,0,68.707,73.5q0-.278-.012-.553A8.682,8.682,0,0,0,70.827,70.737Z" transform="translate(774 4922.267)"/>
  </g>
</svg>
