<svg xmlns="http://www.w3.org/2000/svg" width="96.265" height="43.253" viewBox="0 0 96.265 43.253">
  <defs>
    <style>
      .cls-1 {
        fill: none;
      }

      .cls-2 {
        fill: #424644;
      }

      .cls-3 {
        fill: #3bb0df;
      }
    </style>
  </defs>
  <g id="paybis_logo" transform="translate(-575 -4901.073)">
    <rect id="Rectangle_1473" data-name="Rectangle 1473" class="cls-1" width="18.568" height="19.224" transform="translate(588.544 4911.559)"/>
    <path id="Path_4577" data-name="Path 4577" class="cls-2" d="M26.008,24.23h2.039a5.185,5.185,0,0,0,2.986-.728,2.783,2.783,0,0,0,1.384-1.966,1.987,1.987,0,0,0-.437-2.112,4.58,4.58,0,0,0-2.84-.583H27.1Zm0,0ZM24.843,14.4h2.694l-.51,2.257h2.33l.437-2.257h2.694l-.437,2.257h1.019A5.683,5.683,0,0,1,37.149,17.9a3.83,3.83,0,0,1,.728,3.568,5.391,5.391,0,0,1-2.185,3.568,7.352,7.352,0,0,1-4.515,1.238H25.571l-.218,1.019-1.165,5.825h0l-.073.364H19.746a.924.924,0,0,0,.073-.437l2.549-12.67a2,2,0,0,0-.073-1.384,2.2,2.2,0,0,0-1.456-.364H19.6l.364-2.039h4.442Z" transform="translate(569.017 4897.159)"/>
    <path id="Path_4578" data-name="Path 4578" class="cls-3" d="M27.26,25.559v.218a3.145,3.145,0,0,1-1.311,2.112,5.614,5.614,0,0,1-3.058.655h-.437c-2.84,0-7.282.073-10.122.073l-1.019,1.966h4.442l-.437,2.112h2.694l.437-2.112h2.33l-.437,2.112h2.694l.437-2.112h1.966a7.706,7.706,0,0,0,4.515-1.238A5.384,5.384,0,0,0,32.139,25.7a3.7,3.7,0,0,0-.8-3.568l-.073-.073,1.311-1.019H26.9l-1.165,5.68Zm0,0Zm6.117,13.034a20.386,20.386,0,0,1-10.923,3.2A20.207,20.207,0,1,1,40.44,12.525h1.6A21.6,21.6,0,1,0,35.78,38.666h-2.4Zm0,0ZM95.927,25.7c.51-2.185-1.165-2.84-2.4-3.277-.728-.291-1.238-.51-1.092-1.165.073-.51.655-.874,1.384-.874a4.469,4.469,0,0,1,1.893.583l1.456-2.185a6.418,6.418,0,0,0-3.277-.728c-2.621,0-4.369,1.238-4.806,3.2-.51,2.185,1.165,2.84,2.33,3.277.728.291,1.238.51,1.092,1.165a1.332,1.332,0,0,1-1.384.874A5.4,5.4,0,0,1,88.936,26l-.655,2.767a7.452,7.452,0,0,0,2.33.364C93.742,29.054,95.49,27.816,95.927,25.7Zm0,0Zm-9.539,3.131,2.4-10.559h-3.2l-2.4,10.559Zm0,0Zm3.2-13.69a1.347,1.347,0,0,0-1.456-1.675,2.271,2.271,0,0,0-2.185,1.675,1.329,1.329,0,0,0,1.384,1.675A2.233,2.233,0,0,0,89.592,15.146Zm0,0ZM80.125,23.52c-.437,1.966-1.456,3.058-2.84,3.058a2.377,2.377,0,0,1-.874-.146l1.238-5.607a2.66,2.66,0,0,1,1.092-.218C80.052,20.607,80.489,21.627,80.125,23.52Zm0,0Zm3.277-.291c.728-3.2-.728-5.1-3.5-5.1a4.4,4.4,0,0,0-1.748.364l1.092-5.024h-3.2L72.7,28.326a8.493,8.493,0,0,0,3.786.728C80.125,29.054,82.528,27.161,83.4,23.229Z" transform="translate(574.1 4901.073)"/>
    <rect id="Rectangle_1474" data-name="Rectangle 1474" class="cls-1" width="20.68" height="13.253" transform="translate(627.574 4919.569)"/>
    <path id="Path_4579" data-name="Path 4579" class="cls-2" d="M93.785,25.591H90.363L87.6,31.344c-.364.8-.655,1.675-.655,1.675h0a11.206,11.206,0,0,0,0-1.675L86.5,25.591H83.081L84.9,35.64l-1.675,2.986h3.2Zm0,0ZM81.261,35.058l1.165-6.044c.51-2.694-.655-3.714-3.35-3.714a12.052,12.052,0,0,0-2.33.218,5.31,5.31,0,0,1-1.238,2.476,8.489,8.489,0,0,1,2.767-.51c1.019,0,1.529.364,1.384,1.165l-.073.437c-3.058.146-5.9.8-6.408,3.422-.364,2.112.947,3.35,4.078,3.35A9.453,9.453,0,0,0,81.261,35.058Zm0,0Zm-2.549-1.529a4.563,4.563,0,0,1-1.165.146c-1.092,0-1.675-.437-1.529-1.238.218-1.165,1.529-1.384,3.2-1.456Z" transform="translate(554.469 4894.196)"/>
    <rect id="Rectangle_1475" data-name="Rectangle 1475" class="cls-1" width="15.073" height="14.127" transform="translate(615.268 4915.709)"/>
    <path id="Path_4580" data-name="Path 4580" class="cls-2" d="M61.616,26.362h1.456a4.783,4.783,0,0,0,2.476-.583A2.333,2.333,0,0,0,66.713,24.1c.146-.8.073-1.384-.364-1.748a3.666,3.666,0,0,0-2.33-.51H62.562Zm0,0ZM67.223,20.1a4.6,4.6,0,0,1,3.35,1.019,3.342,3.342,0,0,1,.655,2.986,4.881,4.881,0,0,1-1.82,2.986,6,6,0,0,1-3.786,1.092H61.252l-.146.8-.947,4.879h0l-.073.364H56.446a.546.546,0,0,0,.073-.364L58.63,23.3a1.841,1.841,0,0,0-.073-1.165c-.146-.218-.583-.291-1.238-.291H56.3l.364-1.748Z" transform="translate(559.041 4895.609)"/>
  </g>
</svg>
