<svg xmlns="http://www.w3.org/2000/svg" width="126.276" height="26.965" viewBox="0 0 126.276 26.965">
  <defs>
    <style>
      .cls-1 {
        fill: #f25022;
      }

      .cls-2 {
        fill: #80ba01;
      }

      .cls-3 {
        fill: #777;
      }

      .cls-4 {
        fill: #02a4ef;
      }

      .cls-5 {
        fill: #ffb902;
      }
    </style>
  </defs>
  <g id="paybis_Microsoft" transform="translate(-882 -4909.571)">
    <path id="Path_4563" data-name="Path 4563" class="cls-1" d="M261.707,1669.964h12.828q0,6.414,0,12.828H261.707v-12.828Z" transform="translate(620.293 3239.607)"/>
    <path id="Path_4564" data-name="Path 4564" class="cls-2" d="M445.2,1669.964h12.828q0,6.414,0,12.828H445.206q0-6.414,0-12.828Z" transform="translate(450.933 3239.607)"/>
    <path id="Path_4565" data-name="Path 4565" class="cls-3" d="M1719.085,1725.156a5.035,5.035,0,0,1,4.043-.474c.012.792,0,1.585.005,2.378a2.645,2.645,0,0,0-2.045-.187,1.621,1.621,0,0,0-.925,1.294,17.465,17.465,0,0,0-.052,2.077c1.353,0,2.706,0,4.058,0,.01-.878-.011-1.757.012-2.636.92-.262,1.83-.555,2.745-.831.008,1.157-.011,2.315.01,3.473.914-.013,1.83,0,2.745-.006v2.253c-.918-.038-1.838-.01-2.756-.013,0,1.3,0,2.59,0,3.886.015.717-.039,1.438.045,2.153a1.4,1.4,0,0,0,.6,1.106,2.067,2.067,0,0,0,2.11-.2v2.275a5.425,5.425,0,0,1-2.536.388,3.085,3.085,0,0,1-2.187-1,4.141,4.141,0,0,1-.783-2.647c-.007-1.988,0-3.976,0-5.964q-2.03,0-4.06,0,0,4.679,0,9.359h-2.774q0-4.678,0-9.355c-.643-.012-1.287,0-1.931-.01,0-.74.005-1.482,0-2.223.64-.015,1.281-.008,1.923,0a11.826,11.826,0,0,1,.191-2.957,3.783,3.783,0,0,1,1.565-2.136Z" transform="translate(-721.407 3189.303)"/>
    <path id="Path_4566" data-name="Path 4566" class="cls-3" d="M975.309,1735.269a1.7,1.7,0,0,1,1.536.544,1.582,1.582,0,0,1,.193,1.8,1.726,1.726,0,0,1-1.847.774,1.569,1.569,0,0,1-1.288-1.546,1.606,1.606,0,0,1,1.407-1.574Z" transform="translate(-37.03 3179.352)"/>
    <path id="Path_4567" data-name="Path 4567" class="cls-3" d="M716.2,1739.945h4.035q1.884,4.783,3.778,9.564c.321.8.622,1.6.958,2.4,1.616-3.985,3.254-7.959,4.858-11.95,1.294-.021,2.588,0,3.882-.008q0,8.089,0,16.177c-.934,0-1.867.008-2.8-.005.01-3.979,0-7.959,0-11.939,0-.178,0-.357-.017-.536a2.126,2.126,0,0,0-.146.259c-1.6,4.073-3.237,8.135-4.832,12.212-.664.024-1.329,0-1.994.012-1.654-4.073-3.287-8.156-4.933-12.232-.043-.085-.089-.167-.139-.247-.034,1.743-.005,3.489-.015,5.232q0,3.622,0,7.244c-.881,0-1.761,0-2.641,0q0-8.09,0-16.179Z" transform="translate(200.82 3175.019)"/>
    <path id="Path_4568" data-name="Path 4568" class="cls-3" d="M1041.153,1795.974a7.593,7.593,0,0,1,4.121.012,3.337,3.337,0,0,1,.791.33c-.016.884,0,1.768-.009,2.653a4.407,4.407,0,0,0-3.166-.973,3.258,3.258,0,0,0-2.3,1.28,4.476,4.476,0,0,0-.735,3.212,3.478,3.478,0,0,0,1.121,2.305,3.514,3.514,0,0,0,2.6.773,5.283,5.283,0,0,0,2.489-1.022c.008.838,0,1.675.006,2.512a6.746,6.746,0,0,1-3.792.785,5.623,5.623,0,0,1-3.614-1.507,5.778,5.778,0,0,1-1.679-3.881,7.027,7.027,0,0,1,1.1-4.3,5.581,5.581,0,0,1,3.078-2.174Z" transform="translate(-95.239 3123.563)"/>
    <path id="Path_4569" data-name="Path 4569" class="cls-3" d="M1445.454,1795.825a7.339,7.339,0,0,1,3.84.4c0,.851,0,1.7,0,2.55a4.889,4.889,0,0,0-2.914-.861,1.492,1.492,0,0,0-1.325.733,1.2,1.2,0,0,0,.4,1.419c.787.526,1.725.75,2.54,1.221a3.654,3.654,0,0,1,1.589,1.512,3.383,3.383,0,0,1-.722,3.9,5.306,5.306,0,0,1-3.861,1.173,8.249,8.249,0,0,1-2.82-.647c0-.894-.005-1.788,0-2.682a6.067,6.067,0,0,0,2.517,1.086,3.24,3.24,0,0,0,1.915-.176,1.108,1.108,0,0,0,.331-1.576,3.334,3.334,0,0,0-1.211-.793,11.611,11.611,0,0,1-2.395-1.226,2.872,2.872,0,0,1-1.036-1.574,3.538,3.538,0,0,1,.384-2.767,4.131,4.131,0,0,1,2.76-1.7Z" transform="translate(-469.235 3123.536)"/>
    <path id="Path_4570" data-name="Path 4570" class="cls-3" d="M1185.6,1797.033a3.129,3.129,0,0,1,2.575-.217c0,.925,0,1.85,0,2.776a2.947,2.947,0,0,0-1.875-.441,2.3,2.3,0,0,0-1.735,1.387,5.126,5.126,0,0,0-.4,2.368q0,2.772,0,5.545h-2.735q0-5.795,0-11.59c.913-.012,1.826-.007,2.739,0,0,.663,0,1.327,0,1.991a3.554,3.554,0,0,1,1.434-1.817Z" transform="translate(-228.568 3122.693)"/>
    <path id="Path_4571" data-name="Path 4571" class="cls-3" d="M977.186,1799.434c.92,0,1.841-.013,2.76,0-.011,3.862,0,7.725,0,11.587h-2.754q0-5.8,0-11.592Z" transform="translate(-40.063 3120.118)"/>
    <g id="Group_3350" data-name="Group 3350" transform="translate(959.757 4919.258)">
      <path id="Path_4572" data-name="Path 4572" class="cls-3" d="M1279.886,1796.236a7.361,7.361,0,0,0-3.972-.469,5.536,5.536,0,0,0-3.647,1.949,6.179,6.179,0,0,0-1.281,3.543,6.656,6.656,0,0,0,1.016,4.331,5.254,5.254,0,0,0,3.205,2.09,7.966,7.966,0,0,0,3.248,0,5.369,5.369,0,0,0,3.185-1.965,6.15,6.15,0,0,0,1.22-3.376,7.606,7.606,0,0,0-.552-3.657A4.906,4.906,0,0,0,1279.886,1796.236Zm-.257,7.771a2.534,2.534,0,0,1-1.363,1.339,3.741,3.741,0,0,1-2.261.1,2.769,2.769,0,0,1-1.739-1.435,5.35,5.35,0,0,1-.421-2.9,3.686,3.686,0,0,1,1.072-2.419,2.9,2.9,0,0,1,1.825-.72,2.987,2.987,0,0,1,2.321.787,3.743,3.743,0,0,1,.958,2.417A6.072,6.072,0,0,1,1279.63,1804.007Z" transform="translate(-1270.962 -1795.688)"/>
      <path id="Path_4573" data-name="Path 4573" class="cls-3" d="M1569.091,1799.022a4.951,4.951,0,0,0-2.383-2.7,7.186,7.186,0,0,0-4.118-.559,5.742,5.742,0,0,0-3.065,1.315,5.68,5.68,0,0,0-1.83,3.561,7.68,7.68,0,0,0,.436,4.028,5.142,5.142,0,0,0,2.818,2.734,7.459,7.459,0,0,0,3.908.331,5.417,5.417,0,0,0,3.411-1.994,6.344,6.344,0,0,0,1.255-3.949A7.392,7.392,0,0,0,1569.091,1799.022Zm-2.5,3.931a3.613,3.613,0,0,1-.717,1.7,2.6,2.6,0,0,1-1.621.872,3.667,3.667,0,0,1-1.984-.216,2.811,2.811,0,0,1-1.463-1.531,5.5,5.5,0,0,1-.329-2.526,4.008,4.008,0,0,1,.841-2.309,2.839,2.839,0,0,1,2.025-.972,3.043,3.043,0,0,1,2.223.656,3.18,3.18,0,0,1,1,1.846A7.037,7.037,0,0,1,1566.589,1802.953Z" transform="translate(-1535.525 -1795.689)"/>
    </g>
    <path id="Path_4575" data-name="Path 4575" class="cls-4" d="M261.707,1853.454q6.414,0,12.828,0,0,6.414,0,12.827H261.707v-12.828Z" transform="translate(620.293 3070.254)"/>
    <path id="Path_4576" data-name="Path 4576" class="cls-5" d="M445.208,1853.462q6.413,0,12.827,0v12.828H445.207q0-6.414,0-12.827Z" transform="translate(450.931 3070.247)"/>
  </g>
</svg>
