<svg xmlns="http://www.w3.org/2000/svg" width="110.802" height="31.159" viewBox="0 0 110.802 31.159">
  <g id="trezor_logo" transform="translate(-1234 -4907.564)">
    <path id="path7" d="M49.34,19.707a7.732,7.732,0,0,0-7.731,7.731v2.891c-1.5.268-3.011.638-3.011,1.111V46.587a.692.692,0,0,0,.463.609c1.708.68,8.415,3.057,9.954,3.6a.755.755,0,0,0,.316.07.734.734,0,0,0,.313-.069c1.536-.543,8.266-2.926,9.964-3.6a.709.709,0,0,0,.454-.606V31.441c0-.473-1.491-.844-2.99-1.112V27.438A7.731,7.731,0,0,0,49.34,19.707Zm0,3.695a3.726,3.726,0,0,1,4.039,4.037v2.518a52.769,52.769,0,0,0-8.081,0V27.438A3.728,3.728,0,0,1,49.34,23.4Zm-.01,10.273c3.513.006,6.467.267,6.467.767v9.437c0,.138-.022.161-.152.21s-6.007,2.173-6.007,2.173a1.971,1.971,0,0,1-.308.08,1.817,1.817,0,0,1-.317-.083s-5.874-2.122-6.006-2.171-.149-.075-.149-.214V34.442C42.859,33.928,45.817,33.669,49.33,33.675Z" transform="translate(1195.402 4887.857)"/>
    <g id="g3222" transform="translate(1261.653 4917.595)">
      <path id="path13" d="M194.976,90.37V80.03h-3.769V76.324h11.772V80.03H199.23V90.37Z" transform="translate(-191.207 -76.095)"/>
      <path id="path15" d="M273.9,90.37l-1.937-4.422h-1.538V90.37h-4.254V76.324h7.5a4.672,4.672,0,0,1,5.054,4.822,4.527,4.527,0,0,1-2.527,4.254l2.548,4.97H273.9Zm.505-9.245c0-.758-.674-1.1-1.39-1.1h-2.591v2.211h2.591C273.729,82.241,274.4,81.9,274.4,81.125Z" transform="translate(-252.586 -76.095)"/>
      <path id="path17" d="M347.726,90.37V76.324h10.656V80.03h-6.4v1.39h6.255v3.707H351.98v1.537h6.4V90.37H347.726Z" transform="translate(-319.364 -76.095)"/>
      <path id="path19" d="M418.753,90.386V87.017l5.348-6.971h-5.348V76.34h10.971v3.348l-5.37,6.992h5.517v3.706Z" transform="translate(-377.521 -76.108)"/>
      <path id="path21" d="M485.861,82.326c0-4.317,3.348-7.265,7.686-7.265s7.686,2.948,7.686,7.265-3.349,7.265-7.686,7.265S485.861,86.643,485.861,82.326Zm11.056,0a3.373,3.373,0,1,0-3.369,3.516A3.325,3.325,0,0,0,496.917,82.326Z" transform="translate(-432.469 -75.061)"/>
      <path id="path23" d="M588.423,90.386l-1.937-4.422h-1.538v4.422H580.7V76.34h7.5a4.672,4.672,0,0,1,5.055,4.822,4.528,4.528,0,0,1-2.528,4.254l2.548,4.97h-4.844Zm.506-9.245c0-.758-.674-1.1-1.39-1.1h-2.59v2.211h2.59C588.255,82.257,588.929,81.921,588.929,81.141Z" transform="translate(-510.118 -76.108)"/>
    </g>
  </g>
</svg>
